<svg width="1290" height="83" viewBox="0 0 1290 83" fill="none" xmlns="http://www.w3.org/2000/svg">
<path d="M32.0003 64.3599C26.2208 64.3599 20.8945 62.9717 16.0216 60.1952C11.1487 57.4188 7.2673 53.6224 4.37754 48.8062C1.54443 43.9332 0.127883 38.522 0.127883 32.5725C0.127883 26.623 1.54443 21.2401 4.37754 16.4238C7.2673 11.5508 11.1487 7.72616 16.0216 4.94972C20.8945 2.17328 26.2208 0.785055 32.0003 0.785055C36.5899 0.785055 40.8679 1.60666 44.8342 3.24986C48.8006 4.89306 52.1153 7.18787 54.7784 10.1343L48.149 16.7638C46.1658 14.5539 43.786 12.8541 41.0096 11.6642C38.2898 10.4743 35.2584 9.87932 31.9153 9.87932C28.0056 9.87932 24.3509 10.8142 20.9512 12.6841C17.5515 14.5539 14.8317 17.2171 12.7919 20.6734C10.752 24.1298 9.7321 28.0962 9.7321 32.5725C9.7321 37.0488 10.752 41.0151 12.7919 44.4715C14.8317 47.9279 17.5515 50.591 20.9512 52.4609C24.3509 54.3307 28.0339 55.2656 32.0003 55.2656C35.6267 55.2656 38.6581 54.7273 41.0946 53.6508C43.531 52.5742 45.7125 51.1293 47.639 49.3161C48.8856 48.0695 49.9338 46.5113 50.7838 44.6415C51.6904 42.7716 52.2853 40.7318 52.5686 38.522H31.9153V30.0227H61.5779C61.8612 31.6092 62.0029 33.2524 62.0029 34.9523C62.0029 38.8053 61.4079 42.5167 60.218 46.0864C59.0281 49.5994 57.1299 52.6592 54.5235 55.2656C48.8006 61.3285 41.2929 64.3599 32.0003 64.3599ZM91.36 64.3599C86.997 64.3599 83.0873 63.3683 79.6309 61.3851C76.1746 59.3453 73.4831 56.5689 71.5566 53.0558C69.6301 49.5428 68.6668 45.6331 68.6668 41.3268C68.6668 37.0204 69.6301 33.1108 71.5566 29.5977C73.4831 26.0847 76.1746 23.3366 79.6309 21.3534C83.0873 19.3136 86.997 18.2936 91.36 18.2936C95.723 18.2936 99.6327 19.3136 103.089 21.3534C106.545 23.3932 109.237 26.1697 111.163 29.6827C113.09 33.1958 114.053 37.0771 114.053 41.3268C114.053 45.6331 113.09 49.5428 111.163 53.0558C109.237 56.5689 106.545 59.3453 103.089 61.3851C99.6327 63.3683 95.723 64.3599 91.36 64.3599ZM91.36 55.7756C93.7398 55.7756 95.9496 55.209 97.9895 54.0757C100.029 52.8858 101.644 51.2143 102.834 49.0611C104.081 46.8513 104.704 44.2732 104.704 41.3268C104.704 38.3803 104.081 35.8305 102.834 33.6774C101.644 31.5242 100.029 29.881 97.9895 28.7478C95.9496 27.5579 93.7398 26.9629 91.36 26.9629C88.9802 26.9629 86.7704 27.5579 84.7305 28.7478C82.6907 29.881 81.0475 31.5242 79.8009 33.6774C78.611 35.8305 78.0161 38.3803 78.0161 41.3268C78.0161 44.2732 78.611 46.8513 79.8009 49.0611C81.0475 51.2143 82.6907 52.8858 84.7305 54.0757C86.7704 55.209 88.9802 55.7756 91.36 55.7756ZM142.987 64.3599C138.624 64.3599 134.714 63.3683 131.258 61.3851C127.801 59.3453 125.11 56.5689 123.183 53.0558C121.257 49.5428 120.294 45.6331 120.294 41.3268C120.294 37.0204 121.257 33.1108 123.183 29.5977C125.11 26.0847 127.801 23.3366 131.258 21.3534C134.714 19.3136 138.624 18.2936 142.987 18.2936C147.35 18.2936 151.259 19.3136 154.716 21.3534C158.172 23.3932 160.864 26.1697 162.79 29.6827C164.717 33.1958 165.68 37.0771 165.68 41.3268C165.68 45.6331 164.717 49.5428 162.79 53.0558C160.864 56.5689 158.172 59.3453 154.716 61.3851C151.259 63.3683 147.35 64.3599 142.987 64.3599ZM142.987 55.7756C145.366 55.7756 147.576 55.209 149.616 54.0757C151.656 52.8858 153.271 51.2143 154.461 49.0611C155.707 46.8513 156.331 44.2732 156.331 41.3268C156.331 38.3803 155.707 35.8305 154.461 33.6774C153.271 31.5242 151.656 29.881 149.616 28.7478C147.576 27.5579 145.366 26.9629 142.987 26.9629C140.607 26.9629 138.397 27.5579 136.357 28.7478C134.317 29.881 132.674 31.5242 131.428 33.6774C130.238 35.8305 129.643 38.3803 129.643 41.3268C129.643 44.2732 130.238 46.8513 131.428 49.0611C132.674 51.2143 134.317 52.8858 136.357 54.0757C138.397 55.209 140.607 55.7756 142.987 55.7756ZM193.848 82.7184C188.522 82.7184 184.103 81.5002 180.589 79.0637C177.133 76.6272 174.81 73.7375 173.62 70.3944L182.374 66.7397C183.281 69.0062 184.726 70.8194 186.709 72.1793C188.749 73.5958 191.129 74.3041 193.848 74.3041C197.815 74.3041 200.903 73.1142 203.113 70.7344C205.379 68.4112 206.512 65.1248 206.512 60.8752V56.8805H206.002C204.586 58.9203 202.688 60.5352 200.308 61.7251C197.985 62.8583 195.293 63.425 192.234 63.425C188.607 63.425 185.236 62.49 182.119 60.6202C179.003 58.7503 176.51 56.1156 174.64 52.7158C172.827 49.2594 171.92 45.3214 171.92 40.9018C171.92 36.4822 172.827 32.5725 174.64 29.1727C176.51 25.7164 179.003 23.0532 182.119 21.1834C185.236 19.2569 188.607 18.2936 192.234 18.2936C195.237 18.2936 197.928 18.8886 200.308 20.0785C202.688 21.2684 204.586 22.8833 206.002 24.9231H206.512V19.6535H215.437V60.6202C215.437 65.3231 214.53 69.3178 212.717 72.6042C210.904 75.9473 208.354 78.4687 205.067 80.1686C201.838 81.8685 198.098 82.7184 193.848 82.7184ZM193.933 54.9257C196.2 54.9257 198.296 54.3874 200.223 53.3108C202.149 52.1775 203.679 50.5627 204.812 48.4662C205.946 46.313 206.512 43.7916 206.512 40.9018C206.512 36.4822 205.294 33.0541 202.858 30.6176C200.478 28.1245 197.503 26.8779 193.933 26.8779C191.61 26.8779 189.485 27.4446 187.559 28.5778C185.632 29.6544 184.103 31.2409 182.969 33.3374C181.836 35.4339 181.269 37.9554 181.269 40.9018C181.269 43.8482 181.836 46.3697 182.969 48.4662C184.103 50.5627 185.632 52.1775 187.559 53.3108C189.485 54.3874 191.61 54.9257 193.933 54.9257ZM226.425 2.14495H235.774V63H226.425V2.14495ZM266.148 64.3599C261.899 64.3599 258.074 63.3683 254.674 61.3851C251.331 59.402 248.696 56.6822 246.77 53.2258C244.9 49.7127 243.965 45.7747 243.965 41.4118C243.965 37.2754 244.872 33.4507 246.685 29.9377C248.555 26.368 251.133 23.5349 254.419 21.4384C257.706 19.3419 261.445 18.2936 265.638 18.2936C270.001 18.2936 273.769 19.2569 276.942 21.1834C280.172 23.1099 282.609 25.7447 284.252 29.0878C285.952 32.4308 286.802 36.1988 286.802 40.3918C286.802 41.1851 286.717 42.1767 286.547 43.3666H253.314C253.654 47.3896 255.071 50.506 257.564 52.7158C260.114 54.869 263.06 55.9456 266.403 55.9456C269.066 55.9456 271.361 55.3506 273.288 54.1607C275.271 52.9142 276.857 51.2426 278.047 49.1461L285.952 52.8858C283.912 56.4555 281.249 59.2603 277.962 61.3001C274.676 63.34 270.738 64.3599 266.148 64.3599ZM277.282 36.2272C277.169 34.6973 276.687 33.1958 275.837 31.7225C274.988 30.1927 273.684 28.9178 271.928 27.8979C270.228 26.8779 268.131 26.368 265.638 26.368C262.635 26.368 260.085 27.2746 257.989 29.0878C255.949 30.8443 254.533 33.2241 253.739 36.2272H277.282ZM316.766 2.14495H336.229C342.519 2.14495 348.015 3.41984 352.718 5.96964C357.421 8.51943 361.019 12.1175 363.512 16.7638C366.062 21.3534 367.337 26.623 367.337 32.5725C367.337 38.522 366.062 43.8199 363.512 48.4662C361.019 53.0558 357.421 56.6255 352.718 59.1753C348.015 61.7251 342.519 63 336.229 63H316.766V2.14495ZM336.059 53.9057C342.859 53.9057 348.156 52.0359 351.953 48.2962C355.806 44.4998 357.732 39.2586 357.732 32.5725C357.732 25.943 355.806 20.7301 351.953 16.9337C348.156 13.1374 342.859 11.2392 336.059 11.2392H326.285V53.9057H336.059ZM395.215 64.3599C390.965 64.3599 387.141 63.3683 383.741 61.3851C380.398 59.402 377.763 56.6822 375.837 53.2258C373.967 49.7127 373.032 45.7747 373.032 41.4118C373.032 37.2754 373.938 33.4507 375.752 29.9377C377.621 26.368 380.199 23.5349 383.486 21.4384C386.772 19.3419 390.512 18.2936 394.705 18.2936C399.068 18.2936 402.836 19.2569 406.009 21.1834C409.239 23.1099 411.675 25.7447 413.318 29.0878C415.018 32.4308 415.868 36.1988 415.868 40.3918C415.868 41.1851 415.783 42.1767 415.613 43.3666H382.381C382.721 47.3896 384.138 50.506 386.631 52.7158C389.18 54.869 392.127 55.9456 395.47 55.9456C398.133 55.9456 400.428 55.3506 402.354 54.1607C404.338 52.9142 405.924 51.2426 407.114 49.1461L415.018 52.8858C412.978 56.4555 410.315 59.2603 407.029 61.3001C403.743 63.34 399.805 64.3599 395.215 64.3599ZM406.349 36.2272C406.236 34.6973 405.754 33.1958 404.904 31.7225C404.054 30.1927 402.751 28.9178 400.994 27.8979C399.295 26.8779 397.198 26.368 394.705 26.368C391.702 26.368 389.152 27.2746 387.056 29.0878C385.016 30.8443 383.599 33.2241 382.806 36.2272H406.349ZM418.708 19.6535H429.162L441.146 50.931H441.486L453.725 19.6535H463.924L445.905 63H436.556L418.708 19.6535ZM488.508 64.3599C484.258 64.3599 480.434 63.3683 477.034 61.3851C473.691 59.402 471.056 56.6822 469.13 53.2258C467.26 49.7127 466.325 45.7747 466.325 41.4118C466.325 37.2754 467.232 33.4507 469.045 29.9377C470.915 26.368 473.493 23.5349 476.779 21.4384C480.065 19.3419 483.805 18.2936 487.998 18.2936C492.361 18.2936 496.129 19.2569 499.302 21.1834C502.532 23.1099 504.968 25.7447 506.612 29.0878C508.312 32.4308 509.161 36.1988 509.161 40.3918C509.161 41.1851 509.076 42.1767 508.906 43.3666H475.674C476.014 47.3896 477.431 50.506 479.924 52.7158C482.474 54.869 485.42 55.9456 488.763 55.9456C491.426 55.9456 493.721 55.3506 495.648 54.1607C497.631 52.9142 499.217 51.2426 500.407 49.1461L508.312 52.8858C506.272 56.4555 503.609 59.2603 500.322 61.3001C497.036 63.34 493.098 64.3599 488.508 64.3599ZM499.642 36.2272C499.529 34.6973 499.047 33.1958 498.197 31.7225C497.347 30.1927 496.044 28.9178 494.288 27.8979C492.588 26.8779 490.491 26.368 487.998 26.368C484.995 26.368 482.445 27.2746 480.349 29.0878C478.309 30.8443 476.892 33.2241 476.099 36.2272H499.642ZM517.675 2.14495H527.025V63H517.675V2.14495ZM557.909 64.3599C553.546 64.3599 549.636 63.3683 546.18 61.3851C542.724 59.3453 540.032 56.5689 538.106 53.0558C536.179 49.5428 535.216 45.6331 535.216 41.3268C535.216 37.0204 536.179 33.1108 538.106 29.5977C540.032 26.0847 542.724 23.3366 546.18 21.3534C549.636 19.3136 553.546 18.2936 557.909 18.2936C562.272 18.2936 566.182 19.3136 569.638 21.3534C573.094 23.3932 575.786 26.1697 577.712 29.6827C579.639 33.1958 580.602 37.0771 580.602 41.3268C580.602 45.6331 579.639 49.5428 577.712 53.0558C575.786 56.5689 573.094 59.3453 569.638 61.3851C566.182 63.3683 562.272 64.3599 557.909 64.3599ZM557.909 55.7756C560.289 55.7756 562.499 55.209 564.538 54.0757C566.578 52.8858 568.193 51.2143 569.383 49.0611C570.63 46.8513 571.253 44.2732 571.253 41.3268C571.253 38.3803 570.63 35.8305 569.383 33.6774C568.193 31.5242 566.578 29.881 564.538 28.7478C562.499 27.5579 560.289 26.9629 557.909 26.9629C555.529 26.9629 553.319 27.5579 551.28 28.7478C549.24 29.881 547.596 31.5242 546.35 33.6774C545.16 35.8305 544.565 38.3803 544.565 41.3268C544.565 44.2732 545.16 46.8513 546.35 49.0611C547.596 51.2143 549.24 52.8858 551.28 54.0757C553.319 55.209 555.529 55.7756 557.909 55.7756ZM588.467 19.6535H597.392V25.3481H597.817C599.063 23.3649 600.905 21.6934 603.341 20.3335C605.778 18.9736 608.526 18.2936 611.585 18.2936C615.495 18.2936 619.037 19.2852 622.21 21.2684C625.383 23.2516 627.876 25.9997 629.689 29.5127C631.559 32.9691 632.494 36.9071 632.494 41.3268C632.494 45.7464 631.559 49.7127 629.689 53.2258C627.876 56.6822 625.383 59.402 622.21 61.3851C619.037 63.3683 615.495 64.3599 611.585 64.3599C608.526 64.3599 605.778 63.6799 603.341 62.3201C600.905 60.9602 599.063 59.317 597.817 57.3905H597.392L597.817 63.425V81.3585H588.467V19.6535ZM610.226 55.7756C612.492 55.7756 614.617 55.1806 616.6 53.9907C618.583 52.8008 620.17 51.101 621.36 48.8911C622.55 46.6813 623.145 44.1599 623.145 41.3268C623.145 38.4937 622.55 36.0005 621.36 33.8474C620.17 31.6375 618.583 29.9377 616.6 28.7478C614.617 27.5579 612.492 26.9629 610.226 26.9629C607.959 26.9629 605.834 27.5579 603.851 28.7478C601.925 29.9377 600.366 31.6375 599.176 33.8474C597.987 36.0005 597.392 38.4937 597.392 41.3268C597.392 44.1599 597.987 46.6813 599.176 48.8911C600.366 51.101 601.925 52.8008 603.851 53.9907C605.834 55.1806 607.959 55.7756 610.226 55.7756ZM660.818 64.3599C656.569 64.3599 652.744 63.3683 649.344 61.3851C646.001 59.402 643.366 56.6822 641.44 53.2258C639.57 49.7127 638.635 45.7747 638.635 41.4118C638.635 37.2754 639.542 33.4507 641.355 29.9377C643.225 26.368 645.803 23.5349 649.089 21.4384C652.376 19.3419 656.115 18.2936 660.308 18.2936C664.671 18.2936 668.439 19.2569 671.612 21.1834C674.842 23.1099 677.279 25.7447 678.922 29.0878C680.622 32.4308 681.472 36.1988 681.472 40.3918C681.472 41.1851 681.387 42.1767 681.217 43.3666H647.984C648.324 47.3896 649.741 50.506 652.234 52.7158C654.784 54.869 657.73 55.9456 661.073 55.9456C663.736 55.9456 666.031 55.3506 667.958 54.1607C669.941 52.9142 671.527 51.2426 672.717 49.1461L680.622 52.8858C678.582 56.4555 675.919 59.2603 672.632 61.3001C669.346 63.34 665.408 64.3599 660.818 64.3599ZM671.952 36.2272C671.839 34.6973 671.357 33.1958 670.508 31.7225C669.658 30.1927 668.354 28.9178 666.598 27.8979C664.898 26.8779 662.801 26.368 660.308 26.368C657.305 26.368 654.755 27.2746 652.659 29.0878C650.619 30.8443 649.203 33.2241 648.409 36.2272H671.952ZM689.986 19.6535H698.91V26.028H699.335C700.298 23.8182 701.97 22.005 704.349 20.5884C706.729 19.1152 709.251 18.3786 711.914 18.3786C714.01 18.3786 715.767 18.6619 717.183 19.2286V28.9178C714.69 28.0112 712.452 27.5579 710.469 27.5579C708.316 27.5579 706.389 28.1245 704.689 29.2577C703.046 30.391 701.743 31.9209 700.78 33.8474C699.816 35.7172 699.335 37.7854 699.335 40.0519V63H689.986V19.6535ZM760.819 64.3599C755.776 64.3599 751.243 62.8867 747.22 59.9402C743.197 56.9938 740.42 52.8575 738.89 47.5313L747.9 43.8766C748.806 47.2196 750.393 49.9677 752.659 52.1209C754.982 54.2174 757.759 55.2656 760.989 55.2656C763.992 55.2656 766.542 54.5007 768.638 52.9708C770.735 51.3843 771.783 49.2311 771.783 46.5113C771.783 44.0182 770.848 41.9784 768.978 40.3918C767.165 38.7486 763.963 37.1054 759.374 35.4622L755.549 34.1023C751.469 32.6858 748.041 30.646 745.265 27.9828C742.489 25.3197 741.1 21.8067 741.1 17.4437C741.1 14.4406 741.922 11.6642 743.565 9.11438C745.208 6.56459 747.475 4.55308 750.365 3.07987C753.311 1.54999 756.626 0.785055 760.309 0.785055C765.635 0.785055 769.885 2.08828 773.058 4.69474C776.231 7.24453 778.356 10.1343 779.432 13.364L770.848 17.0187C770.225 15.0922 769.035 13.3924 767.278 11.9192C765.522 10.4459 763.255 9.70933 760.479 9.70933C757.702 9.70933 755.351 10.4176 753.424 11.8342C751.554 13.2507 750.62 15.0639 750.62 17.2737C750.62 19.3702 751.469 21.0984 753.169 22.4583C754.869 23.8182 757.532 25.1214 761.159 26.368L764.983 27.6429C770.196 29.4561 774.219 31.8359 777.052 34.7823C779.942 37.6721 781.387 41.5534 781.387 46.4263C781.387 50.3927 780.367 53.7358 778.327 56.4555C776.287 59.1186 773.681 61.1018 770.508 62.405C767.391 63.7083 764.162 64.3599 760.819 64.3599ZM806.354 63.6799C804.428 63.6799 802.615 63.3683 800.915 62.745C799.215 62.1217 797.827 61.3001 796.75 60.2802C794.314 57.8438 793.095 54.529 793.095 50.336V27.8979H785.531V19.6535H793.095V7.41452H802.445V19.6535H812.984V27.8979H802.445V48.2962C802.445 50.6193 802.898 52.2625 803.805 53.2258C804.654 54.359 806.128 54.9257 808.224 54.9257C809.187 54.9257 810.037 54.8123 810.774 54.5857C811.511 54.3024 812.304 53.8774 813.154 53.3108V62.405C811.284 63.255 809.017 63.6799 806.354 63.6799ZM837.683 64.3599C832.413 64.3599 828.39 62.8017 825.614 59.6853C822.894 56.5122 821.534 52.1209 821.534 46.5113V19.6535H830.884V45.2364C830.884 48.7495 831.705 51.3843 833.348 53.1408C835.048 54.8973 837.258 55.7756 839.978 55.7756C842.188 55.7756 844.142 55.209 845.842 54.0757C847.542 52.8858 848.845 51.3276 849.752 49.4011C850.659 47.4746 851.112 45.4064 851.112 43.1966V19.6535H860.461V63H851.622V57.3905H851.112C849.922 59.4303 848.08 61.1018 845.587 62.405C843.094 63.7083 840.459 64.3599 837.683 64.3599ZM889.456 64.3599C885.547 64.3599 882.005 63.3683 878.832 61.3851C875.659 59.402 873.138 56.6822 871.268 53.2258C869.455 49.7127 868.548 45.7464 868.548 41.3268C868.548 36.9071 869.455 32.9691 871.268 29.5127C873.138 25.9997 875.659 23.2516 878.832 21.2684C882.005 19.2852 885.547 18.2936 889.456 18.2936C892.516 18.2936 895.264 18.9736 897.701 20.3335C900.137 21.6934 901.979 23.3649 903.225 25.3481H903.65L903.225 19.2286V2.14495H912.575V63H903.65V57.3905H903.225C901.979 59.317 900.137 60.9602 897.701 62.3201C895.264 63.6799 892.516 64.3599 889.456 64.3599ZM890.816 55.7756C893.083 55.7756 895.179 55.1806 897.106 53.9907C899.089 52.8008 900.675 51.101 901.865 48.8911C903.055 46.6813 903.65 44.1599 903.65 41.3268C903.65 38.4937 903.055 36.0005 901.865 33.8474C900.675 31.6375 899.089 29.9377 897.106 28.7478C895.179 27.5579 893.083 26.9629 890.816 26.9629C888.55 26.9629 886.425 27.5579 884.442 28.7478C882.459 29.9377 880.872 31.6375 879.682 33.8474C878.492 36.0005 877.897 38.4937 877.897 41.3268C877.897 44.1599 878.492 46.6813 879.682 48.8911C880.872 51.101 882.459 52.8008 884.442 53.9907C886.425 55.1806 888.55 55.7756 890.816 55.7756ZM942.856 64.3599C938.606 64.3599 934.782 63.3683 931.382 61.3851C928.039 59.402 925.404 56.6822 923.477 53.2258C921.608 49.7127 920.673 45.7747 920.673 41.4118C920.673 37.2754 921.579 33.4507 923.393 29.9377C925.262 26.368 927.84 23.5349 931.127 21.4384C934.413 19.3419 938.153 18.2936 942.346 18.2936C946.709 18.2936 950.477 19.2569 953.65 21.1834C956.88 23.1099 959.316 25.7447 960.959 29.0878C962.659 32.4308 963.509 36.1988 963.509 40.3918C963.509 41.1851 963.424 42.1767 963.254 43.3666H930.022C930.362 47.3896 931.778 50.506 934.272 52.7158C936.821 54.869 939.768 55.9456 943.111 55.9456C945.774 55.9456 948.069 55.3506 949.995 54.1607C951.979 52.9142 953.565 51.2426 954.755 49.1461L962.659 52.8858C960.619 56.4555 957.956 59.2603 954.67 61.3001C951.384 63.34 947.446 64.3599 942.856 64.3599ZM953.99 36.2272C953.877 34.6973 953.395 33.1958 952.545 31.7225C951.695 30.1927 950.392 28.9178 948.635 27.8979C946.936 26.8779 944.839 26.368 942.346 26.368C939.343 26.368 936.793 27.2746 934.697 29.0878C932.657 30.8443 931.24 33.2241 930.447 36.2272H953.99ZM972.023 19.6535H980.947V25.3481H981.372C982.619 23.3082 984.46 21.6367 986.897 20.3335C989.39 18.9736 992.025 18.2936 994.801 18.2936C1000.07 18.2936 1004.07 19.8518 1006.79 22.9683C1009.56 26.028 1010.95 30.221 1010.95 35.5472V63H1001.6V36.8221C1001.6 33.4224 1000.75 30.9293 999.051 29.3427C997.408 27.7562 995.113 26.9629 992.167 26.9629C990.07 26.9629 988.2 27.5579 986.557 28.7478C984.914 29.881 983.639 31.4109 982.732 33.3374C981.826 35.2639 981.372 37.3321 981.372 39.5419V63H972.023V19.6535ZM1037.1 63.6799C1035.17 63.6799 1033.36 63.3683 1031.66 62.745C1029.96 62.1217 1028.57 61.3001 1027.49 60.2802C1025.06 57.8438 1023.84 54.529 1023.84 50.336V27.8979H1016.27V19.6535H1023.84V7.41452H1033.19V19.6535H1043.73V27.8979H1033.19V48.2962C1033.19 50.6193 1033.64 52.2625 1034.55 53.2258C1035.4 54.359 1036.87 54.9257 1038.97 54.9257C1039.93 54.9257 1040.78 54.8123 1041.52 54.5857C1042.25 54.3024 1043.05 53.8774 1043.9 53.3108V62.405C1042.03 63.255 1039.76 63.6799 1037.1 63.6799ZM1101.14 64.3599C1095.24 64.3599 1089.86 62.9717 1084.99 60.1952C1080.11 57.4188 1076.29 53.5941 1073.51 48.7212C1070.74 43.8482 1069.35 38.4653 1069.35 32.5725C1069.35 26.6796 1070.74 21.2967 1073.51 16.4238C1076.29 11.5508 1080.11 7.72616 1084.99 4.94972C1089.86 2.17328 1095.24 0.785055 1101.14 0.785055C1105.72 0.785055 1109.89 1.63499 1113.63 3.33485C1117.43 5.03471 1120.77 7.49951 1123.66 10.7293L1116.86 17.2737C1114.76 14.7806 1112.44 12.9391 1109.89 11.7492C1107.34 10.5026 1104.42 9.87932 1101.14 9.87932C1097.06 9.87932 1093.32 10.8142 1089.92 12.6841C1086.57 14.5539 1083.91 17.2171 1081.93 20.6734C1079.94 24.0732 1078.95 28.0395 1078.95 32.5725C1078.95 37.1054 1079.94 41.1001 1081.93 44.5565C1083.91 47.9562 1086.57 50.591 1089.92 52.4609C1093.32 54.3307 1097.06 55.2656 1101.14 55.2656C1107.93 55.2656 1113.71 52.4325 1118.47 46.7663L1125.36 53.3958C1122.41 56.8522 1118.87 59.5436 1114.73 61.4701C1110.6 63.3966 1106.06 64.3599 1101.14 64.3599ZM1133.63 2.14495H1142.98V63H1133.63V2.14495ZM1169.77 64.3599C1164.5 64.3599 1160.48 62.8017 1157.7 59.6853C1154.98 56.5122 1153.62 52.1209 1153.62 46.5113V19.6535H1162.97V45.2364C1162.97 48.7495 1163.79 51.3843 1165.44 53.1408C1167.14 54.8973 1169.35 55.7756 1172.07 55.7756C1174.27 55.7756 1176.23 55.209 1177.93 54.0757C1179.63 52.8858 1180.93 51.3276 1181.84 49.4011C1182.75 47.4746 1183.2 45.4064 1183.2 43.1966V19.6535H1192.55V63H1183.71V57.3905H1183.2C1182.01 59.4303 1180.17 61.1018 1177.67 62.405C1175.18 63.7083 1172.55 64.3599 1169.77 64.3599ZM1226.55 64.3599C1223.49 64.3599 1220.74 63.6799 1218.3 62.3201C1215.87 60.9602 1214.03 59.317 1212.78 57.3905H1212.35V63H1203.43V2.14495H1212.78V19.2286L1212.35 25.3481H1212.78C1214.03 23.3649 1215.87 21.6934 1218.3 20.3335C1220.74 18.9736 1223.49 18.2936 1226.55 18.2936C1230.46 18.2936 1234 19.2852 1237.17 21.2684C1240.35 23.2516 1242.84 25.9997 1244.65 29.5127C1246.52 32.9691 1247.46 36.9071 1247.46 41.3268C1247.46 45.7464 1246.52 49.7127 1244.65 53.2258C1242.84 56.6822 1240.35 59.402 1237.17 61.3851C1234 63.3683 1230.46 64.3599 1226.55 64.3599ZM1225.19 55.7756C1227.45 55.7756 1229.58 55.1806 1231.56 53.9907C1233.55 52.8008 1235.13 51.101 1236.32 48.8911C1237.51 46.6813 1238.11 44.1599 1238.11 41.3268C1238.11 38.4937 1237.51 36.0005 1236.32 33.8474C1235.13 31.6375 1233.55 29.9377 1231.56 28.7478C1229.58 27.5579 1227.45 26.9629 1225.19 26.9629C1222.92 26.9629 1220.8 27.5579 1218.81 28.7478C1216.89 29.9377 1215.33 31.6375 1214.14 33.8474C1212.95 36.0005 1212.35 38.4937 1212.35 41.3268C1212.35 44.1599 1212.95 46.6813 1214.14 48.8911C1215.33 51.101 1216.89 52.8008 1218.81 53.9907C1220.8 55.1806 1222.92 55.7756 1225.19 55.7756ZM1271.36 64.3599C1266.38 64.3599 1262.3 63.2833 1259.12 61.1302C1255.95 58.9203 1253.71 56.1156 1252.41 52.7158L1260.74 49.0611C1261.76 51.3276 1263.18 53.0558 1264.99 54.2457C1266.86 55.4356 1268.98 56.0306 1271.36 56.0306C1273.69 56.0306 1275.64 55.6339 1277.23 54.8407C1278.81 53.9907 1279.61 52.7442 1279.61 51.101C1279.61 49.5144 1278.93 48.2679 1277.57 47.3613C1276.21 46.4547 1274.11 45.6614 1271.28 44.9815L1266.09 43.7066C1262.64 42.8566 1259.78 41.3551 1257.51 39.2019C1255.24 37.0488 1254.11 34.329 1254.11 31.0426C1254.11 28.4928 1254.85 26.2547 1256.32 24.3281C1257.85 22.4016 1259.89 20.9284 1262.44 19.9085C1264.99 18.8319 1267.77 18.2936 1270.77 18.2936C1274.79 18.2936 1278.33 19.1152 1281.39 20.7584C1284.45 22.345 1286.66 24.6681 1288.02 27.7279L1279.86 31.2976C1278.22 27.9545 1275.22 26.283 1270.85 26.283C1268.76 26.283 1267 26.708 1265.58 27.5579C1264.17 28.4078 1263.46 29.5127 1263.46 30.8726C1263.46 32.1758 1264 33.2524 1265.07 34.1023C1266.15 34.8956 1267.74 35.5756 1269.83 36.1422L1276.21 37.7571C1280.46 38.8336 1283.66 40.4768 1285.81 42.6867C1288.02 44.8398 1289.13 47.5029 1289.13 50.676C1289.13 53.3958 1288.33 55.8039 1286.75 57.9004C1285.22 59.9402 1283.09 61.5268 1280.37 62.66C1277.65 63.7933 1274.65 64.3599 1271.36 64.3599Z" fill="url(#paint0_linear_3_127)"/>
<defs>
<linearGradient id="paint0_linear_3_127" x1="19.5" y1="63.0001" x2="1280" y2="63.0001" gradientUnits="userSpaceOnUse">
<stop stop-color="#EA4335"/>
<stop offset="0.23" stop-color="#4285F4"/>
<stop offset="0.545" stop-color="#0F9D58"/>
<stop offset="1" stop-color="#FBBC04"/>
</linearGradient>
</defs>
</svg>
