<svg width="444" height="60" viewBox="0 0 444 60" fill="none" xmlns="http://www.w3.org/2000/svg">
<path d="M16.2176 25.5241L27.2885 19.136C27.9074 18.778 28.4498 18.3016 28.8847 17.7339C29.3195 17.1663 29.6383 16.5186 29.8229 15.8278C30.0074 15.1369 30.0541 14.4165 29.9602 13.7077C29.8663 12.9988 29.6337 12.3154 29.2757 11.6964C28.9177 11.0774 28.4413 10.535 27.8737 10.1002C27.3061 9.66533 26.6583 9.34653 25.9675 9.162C24.5723 8.78932 23.0862 8.98613 21.8362 9.70915L2.71875 20.7438L16.2176 25.5241Z" fill="#EA4335"/>
<path d="M24.5552 41.9385C25.7537 41.9397 26.9191 41.5456 27.8707 40.8171C28.8224 40.0886 29.5071 39.0665 29.8187 37.9093C30.1304 36.7521 30.0515 35.5243 29.5944 34.4165C29.1373 33.3086 28.3274 32.3825 27.2904 31.7818L8.16576 20.7435C6.91568 20.0214 5.42997 19.8255 4.03546 20.1989C2.64095 20.5722 1.45187 21.4843 0.729807 22.7343C0.00774441 23.9844 -0.188155 25.4701 0.185206 26.8646C0.558566 28.2592 1.4706 29.4482 2.72068 30.1703L21.8345 41.205C22.6608 41.6851 23.5995 41.9381 24.5552 41.9385Z" fill="#4285F4"/>
<path d="M43.5671 41.9392C44.5206 41.9416 45.4578 41.6923 46.2842 41.2166L65.398 30.1819L52.0725 25.2969L40.8391 31.7826C39.8008 32.3822 38.9895 33.3078 38.531 34.4156C38.0725 35.5235 37.9925 36.7517 38.3034 37.9097C38.6144 39.0677 39.2988 40.0907 40.2505 40.82C41.2022 41.5492 42.3681 41.9439 43.5671 41.9429V41.9392Z" fill="#FBBC04"/>
<path d="M62.6727 30.9007C63.872 30.9033 65.0387 30.5097 65.9912 29.7809C66.9438 29.0521 67.6288 28.029 67.9399 26.8707C68.2511 25.7124 68.1708 24.4838 67.7115 23.3758C67.2523 22.2678 66.4399 21.3426 65.4006 20.744L46.2869 9.7093C45.0368 8.98724 43.5511 8.79134 42.1566 9.1647C40.762 9.53806 39.573 10.4501 38.8509 11.7002C38.1288 12.9502 37.9329 14.436 38.3063 15.8305C38.6797 17.225 39.5917 18.4141 40.8418 19.1361L59.9556 30.1708C60.7812 30.649 61.7185 30.9008 62.6727 30.9007Z" fill="#0F9D58"/>
<path d="M102.551 20.1335C102.551 22.6765 101.797 24.7024 100.288 26.2113C98.5927 28.0084 96.3633 28.9069 93.5999 28.9069C90.9552 28.9069 88.7173 27.9914 86.8863 26.1604C85.0554 24.3295 84.1399 22.0747 84.1399 19.396C84.1399 16.7174 85.0554 14.4626 86.8863 12.6316C88.7173 10.8006 90.9552 9.88515 93.5999 9.88515C94.9392 9.88515 96.2022 10.1225 97.389 10.5972C98.5757 11.0719 99.5505 11.7415 100.313 12.6062L98.6351 14.2846C98.0756 13.6064 97.3466 13.0809 96.4481 12.7079C95.5665 12.318 94.6171 12.123 93.5999 12.123C91.6163 12.123 89.938 12.8096 88.5647 14.1828C87.2085 15.573 86.5303 17.3107 86.5303 19.396C86.5303 21.4813 87.2085 23.219 88.5647 24.6092C89.938 25.9824 91.6163 26.669 93.5999 26.669C95.4139 26.669 96.9228 26.1604 98.1265 25.1432C99.3301 24.126 100.025 22.7274 100.212 20.9473H93.5999V18.7603H102.424C102.509 19.235 102.551 19.6927 102.551 20.1335ZM104.151 22.2696C104.151 20.3539 104.753 18.7687 105.956 17.5142C107.177 16.2596 108.711 15.6324 110.559 15.6324C112.407 15.6324 113.933 16.2596 115.137 17.5142C116.357 18.7687 116.968 20.3539 116.968 22.2696C116.968 24.2023 116.357 25.7875 115.137 27.0251C113.933 28.2796 112.407 28.9069 110.559 28.9069C108.711 28.9069 107.177 28.2796 105.956 27.0251C104.753 25.7705 104.151 24.1854 104.151 22.2696ZM106.49 22.2696C106.49 23.6089 106.88 24.694 107.66 25.5247C108.44 26.3554 109.406 26.7708 110.559 26.7708C111.712 26.7708 112.678 26.3554 113.458 25.5247C114.238 24.694 114.628 23.6089 114.628 22.2696C114.628 20.9473 114.238 19.8707 113.458 19.04C112.661 18.1923 111.695 17.7685 110.559 17.7685C109.423 17.7685 108.457 18.1923 107.66 19.04C106.88 19.8707 106.49 20.9473 106.49 22.2696ZM118.381 22.2696C118.381 20.3539 118.983 18.7687 120.186 17.5142C121.407 16.2596 122.941 15.6324 124.789 15.6324C126.637 15.6324 128.163 16.2596 129.367 17.5142C130.587 18.7687 131.198 20.3539 131.198 22.2696C131.198 24.2023 130.587 25.7875 129.367 27.0251C128.163 28.2796 126.637 28.9069 124.789 28.9069C122.941 28.9069 121.407 28.2796 120.186 27.0251C118.983 25.7705 118.381 24.1854 118.381 22.2696ZM120.72 22.2696C120.72 23.6089 121.11 24.694 121.89 25.5247C122.67 26.3554 123.636 26.7708 124.789 26.7708C125.942 26.7708 126.908 26.3554 127.688 25.5247C128.468 24.694 128.858 23.6089 128.858 22.2696C128.858 20.9473 128.468 19.8707 127.688 19.04C126.891 18.1923 125.925 17.7685 124.789 17.7685C123.653 17.7685 122.687 18.1923 121.89 19.04C121.11 19.8707 120.72 20.9473 120.72 22.2696ZM138.917 26.7708C140.07 26.7708 141.011 26.3554 141.74 25.5247C142.503 24.694 142.884 23.6089 142.884 22.2696C142.884 20.9642 142.503 19.8877 141.74 19.04C140.994 18.1923 140.053 17.7685 138.917 17.7685C137.798 17.7685 136.858 18.1923 136.095 19.04C135.332 19.8877 134.95 20.9642 134.95 22.2696C134.95 23.592 135.332 24.6685 136.095 25.4992C136.858 26.3469 137.798 26.7708 138.917 26.7708ZM138.841 34.3998C138.146 34.3998 137.493 34.3065 136.883 34.1201C136.273 33.9505 135.713 33.7047 135.205 33.3826C134.713 33.0605 134.289 32.679 133.933 32.2382C133.577 31.7974 133.306 31.3058 133.119 30.7633L135.332 29.8478C135.586 30.5768 136.027 31.1617 136.654 31.6025C137.281 32.0433 138.01 32.2637 138.841 32.2637C140.113 32.2637 141.104 31.8822 141.816 31.1193C142.528 30.3564 142.884 29.3053 142.884 27.966V26.7708H142.783C142.342 27.4319 141.74 27.9575 140.977 28.3474C140.231 28.7204 139.417 28.9069 138.536 28.9069C136.908 28.9069 135.51 28.2711 134.34 26.9996C133.187 25.6942 132.611 24.1175 132.611 22.2696C132.611 20.4217 133.187 18.8535 134.34 17.565C135.51 16.2766 136.908 15.6324 138.536 15.6324C139.417 15.6324 140.231 15.8273 140.977 16.2173C141.74 16.5902 142.342 17.1073 142.783 17.7685H142.884V16.0392H145.122V27.966C145.122 29.9665 144.554 31.5347 143.418 32.6705C142.266 33.8234 140.74 34.3998 138.841 34.3998ZM150.314 10.292V28.5H147.975V10.292H150.314ZM158.636 28.9069C156.805 28.9069 155.296 28.2796 154.109 27.0251C152.922 25.7705 152.329 24.1854 152.329 22.2696C152.329 20.3708 152.905 18.7942 154.058 17.5396C155.211 16.2681 156.686 15.6324 158.483 15.6324C160.331 15.6324 161.797 16.2342 162.882 17.4379C163.984 18.6246 164.535 20.2945 164.535 22.4476L164.51 22.7019H154.719C154.753 23.9226 155.16 24.9059 155.94 25.6518C156.72 26.3978 157.652 26.7708 158.737 26.7708C160.229 26.7708 161.399 26.0248 162.247 24.5329L164.332 25.5501C163.773 26.6012 162.993 27.4235 161.992 28.0168C161.009 28.6102 159.89 28.9069 158.636 28.9069ZM154.897 20.7692H162.043C161.975 19.9046 161.619 19.1926 160.975 18.6331C160.348 18.0567 159.5 17.7685 158.432 17.7685C157.551 17.7685 156.788 18.0397 156.143 18.5823C155.516 19.1248 155.101 19.8538 154.897 20.7692ZM172.669 28.5V10.292H178.239C181.019 10.292 183.248 11.1312 184.927 12.8096C186.622 14.488 187.47 16.6835 187.47 19.396C187.47 22.1255 186.622 24.3295 184.927 26.0078C183.248 27.6693 181.019 28.5 178.239 28.5H172.669ZM175.009 12.5299V26.2621H178.239C180.358 26.2621 182.028 25.6603 183.248 24.4566C184.469 23.236 185.079 21.5491 185.079 19.396C185.079 17.2599 184.469 15.5815 183.248 14.3609C182.028 13.1402 180.358 12.5299 178.239 12.5299H175.009ZM195.067 28.9069C193.236 28.9069 191.727 28.2796 190.541 27.0251C189.354 25.7705 188.761 24.1854 188.761 22.2696C188.761 20.3708 189.337 18.7942 190.49 17.5396C191.643 16.2681 193.118 15.6324 194.915 15.6324C196.763 15.6324 198.229 16.2342 199.314 17.4379C200.416 18.6246 200.967 20.2945 200.967 22.4476L200.942 22.7019H191.151C191.185 23.9226 191.592 24.9059 192.372 25.6518C193.152 26.3978 194.084 26.7708 195.169 26.7708C196.661 26.7708 197.831 26.0248 198.678 24.5329L200.764 25.5501C200.204 26.6012 199.424 27.4235 198.424 28.0168C197.441 28.6102 196.322 28.9069 195.067 28.9069ZM191.329 20.7692H198.475C198.407 19.9046 198.051 19.1926 197.407 18.6331C196.78 18.0567 195.932 17.7685 194.864 17.7685C193.982 17.7685 193.219 18.0397 192.575 18.5823C191.948 19.1248 191.532 19.8538 191.329 20.7692ZM208.911 28.5H206.571L201.536 16.0392H204.079L207.741 25.7027H207.792L211.504 16.0392H213.997L208.911 28.5ZM220.746 28.9069C218.915 28.9069 217.406 28.2796 216.219 27.0251C215.032 25.7705 214.439 24.1854 214.439 22.2696C214.439 20.3708 215.015 18.7942 216.168 17.5396C217.321 16.2681 218.796 15.6324 220.593 15.6324C222.441 15.6324 223.908 16.2342 224.993 17.4379C226.095 18.6246 226.646 20.2945 226.646 22.4476L226.62 22.7019H216.829C216.863 23.9226 217.27 24.9059 218.05 25.6518C218.83 26.3978 219.762 26.7708 220.847 26.7708C222.339 26.7708 223.509 26.0248 224.357 24.5329L226.442 25.5501C225.883 26.6012 225.103 27.4235 224.103 28.0168C223.119 28.6102 222 28.9069 220.746 28.9069ZM217.008 20.7692H224.153C224.086 19.9046 223.73 19.1926 223.085 18.6331C222.458 18.0567 221.61 17.7685 220.542 17.7685C219.661 17.7685 218.898 18.0397 218.254 18.5823C217.626 19.1248 217.211 19.8538 217.008 20.7692ZM231.125 10.292V28.5H228.785V10.292H231.125ZM233.139 22.2696C233.139 20.3539 233.741 18.7687 234.945 17.5142C236.165 16.2596 237.7 15.6324 239.548 15.6324C241.395 15.6324 242.921 16.2596 244.125 17.5142C245.346 18.7687 245.956 20.3539 245.956 22.2696C245.956 24.2023 245.346 25.7875 244.125 27.0251C242.921 28.2796 241.395 28.9069 239.548 28.9069C237.7 28.9069 236.165 28.2796 234.945 27.0251C233.741 25.7705 233.139 24.1854 233.139 22.2696ZM235.479 22.2696C235.479 23.6089 235.869 24.694 236.649 25.5247C237.428 26.3554 238.395 26.7708 239.548 26.7708C240.7 26.7708 241.667 26.3554 242.447 25.5247C243.226 24.694 243.616 23.6089 243.616 22.2696C243.616 20.9473 243.226 19.8707 242.447 19.04C241.65 18.1923 240.683 17.7685 239.548 17.7685C238.412 17.7685 237.445 18.1923 236.649 19.04C235.869 19.8707 235.479 20.9473 235.479 22.2696ZM254.06 26.7708C255.179 26.7708 256.12 26.3469 256.883 25.4992C257.646 24.6685 258.027 23.592 258.027 22.2696C258.027 20.9642 257.646 19.8877 256.883 19.04C256.12 18.1923 255.179 17.7685 254.06 17.7685C252.924 17.7685 251.975 18.1923 251.212 19.04C250.466 19.8877 250.093 20.9642 250.093 22.2696C250.093 23.592 250.466 24.677 251.212 25.5247C251.975 26.3554 252.924 26.7708 254.06 26.7708ZM254.442 28.9069C253.526 28.9069 252.687 28.7119 251.924 28.322C251.178 27.9321 250.602 27.415 250.195 26.7708H250.093L250.195 28.5V33.9929H247.855V16.0392H250.093V17.7685H250.195C250.602 17.1243 251.178 16.6072 251.924 16.2173C252.687 15.8273 253.526 15.6324 254.442 15.6324C256.086 15.6324 257.476 16.2766 258.612 17.565C259.782 18.8705 260.367 20.4387 260.367 22.2696C260.367 24.1175 259.782 25.6857 258.612 26.9742C257.476 28.2627 256.086 28.9069 254.442 28.9069ZM268.104 28.9069C266.273 28.9069 264.765 28.2796 263.578 27.0251C262.391 25.7705 261.798 24.1854 261.798 22.2696C261.798 20.3708 262.374 18.7942 263.527 17.5396C264.68 16.2681 266.155 15.6324 267.952 15.6324C269.8 15.6324 271.266 16.2342 272.351 17.4379C273.453 18.6246 274.004 20.2945 274.004 22.4476L273.979 22.7019H264.188C264.222 23.9226 264.629 24.9059 265.409 25.6518C266.189 26.3978 267.121 26.7708 268.206 26.7708C269.698 26.7708 270.868 26.0248 271.715 24.5329L273.801 25.5501C273.241 26.6012 272.461 27.4235 271.461 28.0168C270.478 28.6102 269.359 28.9069 268.104 28.9069ZM264.366 20.7692H271.512C271.444 19.9046 271.088 19.1926 270.444 18.6331C269.817 18.0567 268.969 17.7685 267.901 17.7685C267.019 17.7685 266.256 18.0397 265.612 18.5823C264.985 19.1248 264.57 19.8538 264.366 20.7692ZM278.483 28.5H276.144V16.0392H278.382V18.0736H278.483C278.721 17.4125 279.204 16.853 279.933 16.3953C280.679 15.9206 281.408 15.6832 282.12 15.6832C282.798 15.6832 283.374 15.7849 283.849 15.9884L283.137 18.2517C282.849 18.133 282.391 18.0736 281.764 18.0736C280.882 18.0736 280.111 18.4297 279.45 19.1417C278.805 19.8538 278.483 20.6845 278.483 21.6339V28.5ZM301.847 23.6428C301.847 25.2365 301.262 26.5165 300.092 27.4828C298.905 28.4322 297.464 28.9069 295.769 28.9069C294.26 28.9069 292.929 28.4661 291.776 27.5845C290.624 26.7029 289.827 25.4992 289.386 23.9734L291.624 23.058C291.776 23.6005 291.988 24.0921 292.26 24.5329C292.531 24.9737 292.845 25.3551 293.201 25.6773C293.573 25.9824 293.98 26.2282 294.421 26.4147C294.862 26.5843 295.328 26.669 295.82 26.669C296.888 26.669 297.761 26.3978 298.439 25.8553C299.117 25.2958 299.456 24.5583 299.456 23.6428C299.456 22.8799 299.177 22.2272 298.617 21.6847C298.092 21.1592 297.108 20.6506 295.667 20.1589C294.209 19.6334 293.302 19.2773 292.946 19.0909C291.014 18.1076 290.047 16.658 290.047 14.7423C290.047 13.403 290.581 12.2586 291.649 11.3092C292.734 10.3598 294.065 9.88515 295.642 9.88515C297.032 9.88515 298.236 10.2412 299.253 10.9532C300.27 11.6483 300.948 12.5214 301.287 13.5725L299.1 14.488C298.897 13.8099 298.49 13.2504 297.88 12.8096C297.286 12.3519 296.557 12.123 295.693 12.123C294.777 12.123 294.006 12.3773 293.379 12.8859C292.751 13.3606 292.438 13.9794 292.438 14.7423C292.438 15.3696 292.683 15.9121 293.175 16.3698C293.718 16.8276 294.896 17.3701 296.71 17.9974C298.558 18.6246 299.872 19.396 300.652 20.3115C301.448 21.21 301.847 22.3205 301.847 23.6428ZM308.544 28.7034C307.526 28.7034 306.679 28.3898 306.001 27.7625C305.339 27.1353 305 26.2621 304.983 25.1432V18.1754H302.796V16.0392H304.983V12.2247H307.323V16.0392H310.375V18.1754H307.323V24.3803C307.323 25.211 307.484 25.779 307.806 26.0841C308.128 26.3723 308.493 26.5165 308.9 26.5165C309.086 26.5165 309.264 26.4995 309.434 26.4656C309.62 26.4147 309.79 26.3554 309.942 26.2876L310.68 28.3728C310.069 28.5932 309.357 28.7034 308.544 28.7034ZM323.535 28.5H321.297V26.7708H321.196C320.839 27.3811 320.289 27.8897 319.543 28.2966C318.814 28.7034 318.051 28.9069 317.254 28.9069C315.728 28.9069 314.55 28.4746 313.719 27.6099C312.905 26.7284 312.498 25.4823 312.498 23.8717V16.0392H314.838V23.7191C314.889 25.7535 315.915 26.7708 317.915 26.7708C318.847 26.7708 319.627 26.3978 320.255 25.6518C320.882 24.8889 321.196 23.9819 321.196 22.9308V16.0392H323.535V28.5ZM331.854 26.7708C333.006 26.7708 333.947 26.3554 334.676 25.5247C335.439 24.694 335.821 23.6089 335.821 22.2696C335.821 20.9642 335.439 19.8877 334.676 19.04C333.93 18.1923 332.989 17.7685 331.854 17.7685C330.735 17.7685 329.794 18.1923 329.031 19.04C328.268 19.8877 327.886 20.9642 327.886 22.2696C327.886 23.592 328.268 24.6685 329.031 25.4992C329.794 26.3469 330.735 26.7708 331.854 26.7708ZM331.472 28.9069C329.845 28.9069 328.446 28.2627 327.276 26.9742C326.123 25.6688 325.547 24.1006 325.547 22.2696C325.547 20.4387 326.123 18.8705 327.276 17.565C328.446 16.2766 329.845 15.6324 331.472 15.6324C332.388 15.6324 333.218 15.8273 333.964 16.2173C334.727 16.6072 335.312 17.1243 335.719 17.7685H335.821L335.719 16.0392V10.292H338.058V28.5H335.821V26.7708H335.719C335.312 27.415 334.727 27.9321 333.964 28.322C333.218 28.7119 332.388 28.9069 331.472 28.9069ZM346.381 28.9069C344.551 28.9069 343.042 28.2796 341.855 27.0251C340.668 25.7705 340.075 24.1854 340.075 22.2696C340.075 20.3708 340.651 18.7942 341.804 17.5396C342.957 16.2681 344.432 15.6324 346.229 15.6324C348.077 15.6324 349.543 16.2342 350.628 17.4379C351.73 18.6246 352.281 20.2945 352.281 22.4476L352.256 22.7019H342.465C342.499 23.9226 342.906 24.9059 343.686 25.6518C344.466 26.3978 345.398 26.7708 346.483 26.7708C347.975 26.7708 349.145 26.0248 349.993 24.5329L352.078 25.5501C351.518 26.6012 350.739 27.4235 349.738 28.0168C348.755 28.6102 347.636 28.9069 346.381 28.9069ZM342.643 20.7692H349.789C349.721 19.9046 349.365 19.1926 348.721 18.6331C348.094 18.0567 347.246 17.7685 346.178 17.7685C345.296 17.7685 344.534 18.0397 343.889 18.5823C343.262 19.1248 342.847 19.8538 342.643 20.7692ZM354.421 16.0392H356.659V17.7685H356.76C357.116 17.1582 357.659 16.6496 358.388 16.2427C359.134 15.8358 359.905 15.6324 360.702 15.6324C362.228 15.6324 363.398 16.0731 364.211 16.9547C365.042 17.8193 365.457 19.0569 365.457 20.6675V28.5H363.118V20.8201C363.067 18.7857 362.041 17.7685 360.041 17.7685C359.108 17.7685 358.329 18.1499 357.701 18.9128C357.074 19.6588 356.76 20.5573 356.76 21.6084V28.5H354.421V16.0392ZM372.491 28.7034C371.474 28.7034 370.627 28.3898 369.948 27.7625C369.287 27.1353 368.948 26.2621 368.931 25.1432V18.1754H366.744V16.0392H368.931V12.2247H371.271V16.0392H374.322V18.1754H371.271V24.3803C371.271 25.211 371.432 25.779 371.754 26.0841C372.076 26.3723 372.441 26.5165 372.847 26.5165C373.034 26.5165 373.212 26.4995 373.381 26.4656C373.568 26.4147 373.738 26.3554 373.89 26.2876L374.628 28.3728C374.017 28.5932 373.305 28.7034 372.491 28.7034ZM390.616 28.9069C387.92 28.9069 385.665 27.9999 383.851 26.1859C382.054 24.3718 381.156 22.1086 381.156 19.396C381.156 16.6835 382.054 14.4287 383.851 12.6316C385.648 10.8006 387.903 9.88515 390.616 9.88515C393.362 9.88515 395.592 10.8769 397.304 12.8605L395.625 14.488C394.32 12.9113 392.65 12.123 390.616 12.123C388.598 12.123 386.911 12.8011 385.555 14.1574C384.216 15.4967 383.546 17.2429 383.546 19.396C383.546 21.5491 384.216 23.2953 385.555 24.6346C386.911 25.9909 388.598 26.669 390.616 26.669C392.735 26.669 394.574 25.779 396.134 23.9989L397.838 25.6518C396.973 26.686 395.914 27.4913 394.659 28.0677C393.405 28.6272 392.057 28.9069 390.616 28.9069ZM402.256 10.292V28.5H399.917V10.292H402.256ZM416.042 28.5H413.804V26.7708H413.703C413.347 27.3811 412.796 27.8897 412.05 28.2966C411.321 28.7034 410.558 28.9069 409.761 28.9069C408.235 28.9069 407.057 28.4746 406.226 27.6099C405.412 26.7284 405.005 25.4823 405.005 23.8717V16.0392H407.345V23.7191C407.396 25.7535 408.422 26.7708 410.422 26.7708C411.354 26.7708 412.134 26.3978 412.762 25.6518C413.389 24.8889 413.703 23.9819 413.703 22.9308V16.0392H416.042V28.5ZM425.476 28.9069C424.561 28.9069 423.722 28.7119 422.959 28.322C422.213 27.9321 421.637 27.415 421.23 26.7708H421.128V28.5H418.89V10.292H421.23V16.0392L421.128 17.7685H421.23C421.637 17.1243 422.213 16.6072 422.959 16.2173C423.722 15.8273 424.561 15.6324 425.476 15.6324C427.121 15.6324 428.511 16.2766 429.647 17.565C430.817 18.8705 431.402 20.4387 431.402 22.2696C431.402 24.1175 430.817 25.6857 429.647 26.9742C428.511 28.2627 427.121 28.9069 425.476 28.9069ZM425.095 26.7708C426.214 26.7708 427.155 26.3469 427.918 25.4992C428.681 24.6685 429.062 23.592 429.062 22.2696C429.062 20.9642 428.681 19.8877 427.918 19.04C427.155 18.1923 426.214 17.7685 425.095 17.7685C423.959 17.7685 423.01 18.1923 422.247 19.04C421.501 19.8877 421.128 20.9642 421.128 22.2696C421.128 23.592 421.501 24.677 422.247 25.5247C423.01 26.3554 423.959 26.7708 425.095 26.7708ZM442.954 25.0415C442.954 26.1265 442.48 27.042 441.53 27.788C440.581 28.5339 439.386 28.9069 437.945 28.9069C436.69 28.9069 435.588 28.5848 434.639 27.9405C433.689 27.2794 433.011 26.4147 432.604 25.3467L434.69 24.4566C434.995 25.2026 435.436 25.7875 436.012 26.2113C436.605 26.6182 437.25 26.8216 437.945 26.8216C438.691 26.8216 439.309 26.6606 439.801 26.3384C440.31 26.0163 440.564 25.6349 440.564 25.1941C440.564 24.3973 439.954 23.8124 438.733 23.4394L436.597 22.9054C434.172 22.295 432.96 21.1253 432.96 19.396C432.96 18.2601 433.418 17.3531 434.334 16.675C435.266 15.9799 436.453 15.6324 437.894 15.6324C438.996 15.6324 439.987 15.8951 440.869 16.4207C441.768 16.9462 442.395 17.6498 442.751 18.5314L440.666 19.396C440.428 18.8705 440.038 18.4636 439.496 18.1754C438.97 17.8702 438.377 17.7176 437.716 17.7176C437.105 17.7176 436.554 17.8702 436.063 18.1754C435.588 18.4805 435.351 18.8535 435.351 19.2943C435.351 20.0063 436.02 20.5149 437.36 20.8201L439.242 21.3033C441.717 21.9136 442.954 23.1597 442.954 25.0415Z" fill="black"/>
<path d="M87.732 42.8839V46.6814H89.9624C90.525 46.6814 91.0022 46.5006 91.394 46.1389C91.7858 45.7672 91.9817 45.3101 91.9817 44.7676C91.9817 44.2653 91.7958 43.8283 91.4241 43.4565C91.0624 43.0748 90.6053 42.8839 90.0528 42.8839H87.732ZM87.732 52.3477H86.3456V41.5577H90.0226C90.957 41.5577 91.7506 41.8692 92.4036 42.4921C93.0667 43.1049 93.3982 43.8634 93.3982 44.7676C93.3982 45.511 93.1521 46.1741 92.6598 46.7568C92.1776 47.3294 91.5648 47.6961 90.8213 47.8569L90.7912 47.9021L93.8202 52.2874V52.3477H92.1776L89.2691 47.9774H87.732V52.3477ZM100.136 52.5888C98.5389 52.5888 97.2027 52.0513 96.1277 50.9763C95.0628 49.9013 94.5304 48.5601 94.5304 46.9527C94.5304 45.3453 95.0628 44.0091 96.1277 42.9442C97.1927 41.8591 98.5288 41.3166 100.136 41.3166C101.764 41.3166 103.085 41.9044 104.1 43.0798L103.105 44.0443C102.331 43.1099 101.342 42.6428 100.136 42.6428C98.9408 42.6428 97.9411 43.0446 97.1374 43.8483C96.3437 44.642 95.9469 45.6768 95.9469 46.9527C95.9469 48.2286 96.3437 49.2634 97.1374 50.0571C97.9411 50.8608 98.9408 51.2626 100.136 51.2626C101.392 51.2626 102.482 50.7352 103.406 49.6803L104.416 50.6598C103.904 51.2727 103.276 51.7499 102.532 52.0915C101.789 52.423 100.99 52.5888 100.136 52.5888ZM116.453 46.9527C116.453 48.5501 115.921 49.8863 114.856 50.9612C113.781 52.0463 112.465 52.5888 110.907 52.5888C109.34 52.5888 108.024 52.0463 106.959 50.9612C105.894 49.8863 105.362 48.5501 105.362 46.9527C105.362 45.3553 105.894 44.0191 106.959 42.9442C108.024 41.8591 109.34 41.3166 110.907 41.3166C112.475 41.3166 113.791 41.8642 114.856 42.9592C115.921 44.0342 116.453 45.3654 116.453 46.9527ZM106.778 46.9527C106.778 48.1985 107.17 49.2282 107.954 50.042C108.747 50.8558 109.732 51.2626 110.907 51.2626C112.083 51.2626 113.062 50.8558 113.846 50.042C114.64 49.2383 115.036 48.2085 115.036 46.9527C115.036 45.6969 114.64 44.6671 113.846 43.8634C113.062 43.0496 112.083 42.6428 110.907 42.6428C109.732 42.6428 108.747 43.0496 107.954 43.8634C107.17 44.6772 106.778 45.7069 106.778 46.9527ZM124.388 41.5577V42.8839H119.476V46.3047H123.906V47.6007H119.476V51.0215H124.388V52.3477H118.089V41.5577H124.388ZM127.643 52.3477H126.257V41.5577H127.643L131.396 48.1281H131.456L135.208 41.5577H136.595V52.3477H135.208V45.943L135.268 44.1347H135.208L131.833 50.0571H131.019L127.643 44.1347H127.583L127.643 45.943V52.3477Z" fill="black"/>
</svg>
